<svg width="32" height="32" xmlns="http://www.w3.org/2000/svg">
 <title/>
 <desc/>

 <g>
  <title>background</title>
  <rect fill="none" id="canvas_background" height="402" width="582" y="-1" x="-1"/>
 </g>
 <g>
  <title>Layer 1</title>
  <path fill="#ffffff" id="cloud" d="m26.88286,15.36551c1.83043,0.743 3.11714,2.53807 3.11714,4.63449c0,2.7558 -2.23833,5 -4.99944,5l-17.00112,0c-2.76695,0 -4.99944,-2.23858 -4.99944,-5c0,-2.05087 1.23966,-3.81839 3.0119,-4.58846l0,0c-0.0079,-0.13617 -0.0119,-0.27339 -0.0119,-0.41154c0,-3.86599 3.13401,-7 7,-7c2.61276,0 4.89118,1.43145 6.09381,3.55288c0.72681,-0.35416 1.54329,-0.55288 2.40619,-0.55288c2.64865,0 4.86002,1.87225 5.38286,4.36551z"/>
 </g>
</svg>