
<svg width="277" height="175"  fill="none" class='flying cloud' xmlns="http://www.w3.org/2000/svg">
<path d="M244.251 75.9549C262.895 83.516 276 101.783 276 123.118C276 151.162 253.202 174 225.08 174H51.9202C23.7383 174 1 151.219 1 123.118C1 102.247 13.6262 84.2599 31.6768 76.4233C31.5963 75.0376 31.5556 73.6412 31.5556 72.2353C31.5556 32.8932 63.476 1 102.852 1C129.463 1 152.669 15.5671 164.918 37.1558C172.321 33.5517 180.637 31.5294 189.426 31.5294C216.403 31.5294 238.926 50.5823 244.251 75.9549V75.9549Z" stroke="white" stroke-width="2"/>
</svg>


