        <svg
          class="svg-name"
          width="337"
          height="93"
          viewBox="0 -20 337 93"
          fill="none"
          xmlns="http://www.w3.org/2000/svg"
        >
          <path
            d="M17.3 60.4H36.3V71H5.89999V44.4L1.39999 46.1V36.6L5.89999 34.9V2.2H17.3V30.6L29 26.2V35.8L17.3 40.2V60.4ZM85.193 2.2V40.7C85.193 49.7 84.793 56.2667 83.993 60.4C83.193 64.4667 81.4263 67.4 78.693 69.2C75.9596 70.9333 71.4596 71.8 65.193 71.8C58.9263 71.8 54.4263 70.9333 51.693 69.2C48.9596 67.4 47.193 64.4667 46.393 60.4C45.6596 56.2667 45.293 49.7 45.293 40.7V2.2H56.693V45C56.693 50.3333 56.8263 54.0667 57.093 56.2C57.4263 58.2667 58.1596 59.6667 59.293 60.4C60.4263 61.1333 62.393 61.5 65.193 61.5C68.0596 61.5 70.0596 61.1333 71.193 60.4C72.3263 59.6667 73.0263 58.2667 73.293 56.2C73.6263 54.0667 73.793 50.3333 73.793 45V2.2H85.193ZM127.672 71L115.272 41.3H109.972V71H98.5719V2.2H109.972V31H115.272L128.072 2.2H139.772L124.672 35.1L140.072 71H127.672ZM180.005 71L176.705 55.4H159.105L155.905 71H144.405L159.805 2.2H176.305L191.705 71H180.005ZM168.205 13.5H167.605L161.205 45.2H174.505L168.205 13.5ZM216.916 71.8C214.183 71.8 211.183 71.6667 207.916 71.4C204.65 71.1333 201.816 70.7667 199.416 70.3V60.6C205.083 61.2 209.85 61.5 213.716 61.5C218.383 61.5 221.35 60.7667 222.616 59.3C223.283 58.6333 223.716 57.7333 223.916 56.6C224.116 55.4 224.216 53.8 224.216 51.8C224.216 49 224.05 47 223.716 45.8C223.383 44.6 222.716 43.7333 221.716 43.2C220.783 42.6 219.116 42.1 216.716 41.7L206.816 40C203.483 39.4667 201.183 37.7 199.916 34.7C198.716 31.7 198.116 27.3667 198.116 21.7C198.116 16.3667 198.883 12.2333 200.416 9.29999C201.95 6.29999 204.116 4.23333 206.916 3.1C209.716 1.96666 213.283 1.39999 217.616 1.39999C220.416 1.39999 223.25 1.59999 226.116 1.99999C229.05 2.33333 231.383 2.73333 233.116 3.19999V12.7C229.65 12.0333 225.583 11.7 220.916 11.7C218.25 11.7 216.183 11.8333 214.716 12.1C213.25 12.3667 212.15 12.8333 211.416 13.5C210.616 14.1667 210.083 15.0667 209.816 16.2C209.616 17.3333 209.516 19.0333 209.516 21.3C209.516 23.7 209.65 25.4333 209.916 26.5C210.183 27.5 210.65 28.2333 211.316 28.7C212.05 29.1667 213.25 29.5333 214.916 29.8L224.216 31.4C226.816 31.8 228.916 32.5667 230.516 33.7C232.183 34.8333 233.45 36.7333 234.316 39.4C235.183 42.1333 235.616 45.7667 235.616 50.3C235.616 56.2333 234.916 60.7667 233.516 63.9C232.116 66.9667 230.083 69.0667 227.416 70.2C224.816 71.2667 221.316 71.8 216.916 71.8ZM244.055 71V61.3L268.055 12.5H244.855V2.2H281.055V11.9L256.955 60.8H281.255V71H244.055Z"
            stroke="white"
            stroke-width="2"
          />
        </svg>