      <svg
        class="profession"
        width="350"
        height="23"
        viewBox="0 0 350 23"
        fill="none"
        xmlns="http://www.w3.org/2000/svg"
      >
        <path
          d="M1.48001 20.11C2.50001 20.07 3.18001 19.96 3.52001 19.78C3.88001 19.6 4.10001 19.21 4.18001 18.61C4.26001 17.99 4.30001 16.75 4.30001 14.89V1.36H6.55001V14.32C6.55001 16.96 6.46001 18.76 6.28001 19.72C6.10001 20.66 5.69001 21.27 5.05001 21.55C4.43001 21.83 3.24001 21.98 1.48001 22V20.11ZM22.57 1.36V13.03C22.57 15.71 22.45 17.66 22.21 18.88C21.97 20.1 21.45 20.97 20.65 21.49C19.87 21.99 18.59 22.24 16.81 22.24C15.03 22.24 13.74 21.99 12.94 21.49C12.14 20.97 11.62 20.1 11.38 18.88C11.14 17.64 11.02 15.69 11.02 13.03V1.36H13.27V14.05C13.27 15.95 13.34 17.3 13.48 18.1C13.62 18.9 13.92 19.46 14.38 19.78C14.86 20.1 15.67 20.26 16.81 20.26C17.95 20.26 18.75 20.1 19.21 19.78C19.69 19.46 19.99 18.9 20.11 18.1C20.25 17.3 20.32 15.95 20.32 14.05V1.36H22.57ZM36.6002 22L29.4902 6.12999H29.3702V22H27.2102V1.36H29.5802L36.5702 16.96H36.6902V1.36H38.8502V22H36.6002ZM43.7498 22V1.36H45.9998V22H43.7498ZM56.5216 22.24C54.5616 22.24 53.1616 21.97 52.3216 21.43C51.4816 20.89 50.9416 19.94 50.7016 18.58C50.4616 17.2 50.3416 14.9 50.3416 11.68C50.3416 8.46 50.4616 6.17 50.7016 4.81C50.9416 3.43 51.4816 2.47 52.3216 1.93C53.1616 1.39 54.5616 1.12 56.5216 1.12C58.4816 1.12 59.8816 1.39 60.7216 1.93C61.5616 2.47 62.1016 3.43 62.3416 4.81C62.5816 6.17 62.7016 8.46 62.7016 11.68C62.7016 14.9 62.5816 17.2 62.3416 18.58C62.1016 19.94 61.5616 20.89 60.7216 21.43C59.8816 21.97 58.4816 22.24 56.5216 22.24ZM56.5216 20.26C57.8016 20.26 58.6916 20.11 59.1916 19.81C59.6916 19.51 60.0216 18.8 60.1816 17.68C60.3416 16.56 60.4216 14.56 60.4216 11.68C60.4216 8.79999 60.3416 6.8 60.1816 5.68C60.0216 4.56 59.6916 3.85 59.1916 3.55C58.6916 3.24999 57.8016 3.09999 56.5216 3.09999C55.2416 3.09999 54.3516 3.24999 53.8516 3.55C53.3516 3.85 53.0216 4.56 52.8616 5.68C52.7016 6.8 52.6216 8.79999 52.6216 11.68C52.6216 14.56 52.7016 16.56 52.8616 17.68C53.0216 18.8 53.3516 19.51 53.8516 19.81C54.3516 20.11 55.2416 20.26 56.5216 20.26ZM76.0989 22L73.5189 13.69H69.2289V22H66.9789V1.36H73.2789C74.6989 1.36 75.7589 1.62 76.4589 2.13999C77.1589 2.65999 77.6089 3.35 77.8089 4.20999C78.0289 5.07 78.1389 6.18 78.1389 7.54C78.1389 9.04 77.9789 10.28 77.6589 11.26C77.3589 12.22 76.6989 12.9 75.6789 13.3L78.4689 22H76.0989ZM72.7089 11.74C73.6489 11.74 74.3489 11.59 74.8089 11.29C75.2689 10.99 75.5589 10.56 75.6789 10C75.8189 9.42 75.8889 8.6 75.8889 7.54C75.8889 6.46 75.8189 5.64 75.6789 5.08C75.5589 4.52 75.2789 4.09 74.8389 3.78999C74.3989 3.49 73.6989 3.34 72.7389 3.34H69.2289V11.74H72.7089ZM88.7453 22V1.36H98.0453V3.34H90.9953V11.05H97.2653V13H90.9953V22H88.7453ZM110.711 22L108.131 13.69H103.841V22H101.591V1.36H107.891C109.311 1.36 110.371 1.62 111.071 2.13999C111.771 2.65999 112.221 3.35 112.421 4.20999C112.641 5.07 112.751 6.18 112.751 7.54C112.751 9.04 112.591 10.28 112.271 11.26C111.971 12.22 111.311 12.9 110.291 13.3L113.081 22H110.711ZM107.321 11.74C108.261 11.74 108.961 11.59 109.421 11.29C109.881 10.99 110.171 10.56 110.291 10C110.431 9.42 110.501 8.6 110.501 7.54C110.501 6.46 110.431 5.64 110.291 5.08C110.171 4.52 109.891 4.09 109.451 3.78999C109.011 3.49 108.311 3.34 107.351 3.34H103.841V11.74H107.321ZM122.656 22.24C120.696 22.24 119.296 21.97 118.456 21.43C117.616 20.89 117.076 19.94 116.836 18.58C116.596 17.2 116.476 14.9 116.476 11.68C116.476 8.46 116.596 6.17 116.836 4.81C117.076 3.43 117.616 2.47 118.456 1.93C119.296 1.39 120.696 1.12 122.656 1.12C124.616 1.12 126.016 1.39 126.856 1.93C127.696 2.47 128.236 3.43 128.476 4.81C128.716 6.17 128.836 8.46 128.836 11.68C128.836 14.9 128.716 17.2 128.476 18.58C128.236 19.94 127.696 20.89 126.856 21.43C126.016 21.97 124.616 22.24 122.656 22.24ZM122.656 20.26C123.936 20.26 124.826 20.11 125.326 19.81C125.826 19.51 126.156 18.8 126.316 17.68C126.476 16.56 126.556 14.56 126.556 11.68C126.556 8.79999 126.476 6.8 126.316 5.68C126.156 4.56 125.826 3.85 125.326 3.55C124.826 3.24999 123.936 3.09999 122.656 3.09999C121.376 3.09999 120.486 3.24999 119.986 3.55C119.486 3.85 119.156 4.56 118.996 5.68C118.836 6.8 118.756 8.79999 118.756 11.68C118.756 14.56 118.836 16.56 118.996 17.68C119.156 18.8 119.486 19.51 119.986 19.81C120.486 20.11 121.376 20.26 122.656 20.26ZM142.504 22L135.394 6.12999H135.274V22H133.114V1.36H135.484L142.474 16.96H142.594V1.36H144.754V22H142.504ZM152.533 22V3.4H147.943V1.36H159.373V3.4H154.783V22H152.533ZM162.166 14.41V12.46H168.016V14.41H162.166ZM172.414 22V1.36H182.164V3.34H174.664V10.57H181.174V12.55H174.664V20.02H182.164V22H172.414ZM195.382 22L188.272 6.12999H188.152V22H185.992V1.36H188.362L195.352 16.96H195.472V1.36H197.632V22H195.382ZM202.442 1.36H207.362C209.362 1.36 210.782 1.62 211.622 2.13999C212.482 2.65999 213.032 3.6 213.272 4.96C213.532 6.3 213.662 8.53999 213.662 11.68C213.662 14.82 213.532 17.07 213.272 18.43C213.032 19.77 212.482 20.7 211.622 21.22C210.782 21.74 209.362 22 207.362 22H202.442V1.36ZM207.272 20.02C208.652 20.02 209.592 19.88 210.092 19.6C210.612 19.3 210.962 18.61 211.142 17.53C211.322 16.45 211.412 14.5 211.412 11.68C211.412 8.88 211.322 6.94 211.142 5.85999C210.962 4.75999 210.612 4.06999 210.092 3.78999C209.572 3.49 208.632 3.34 207.272 3.34H204.662V20.02H207.272ZM224.325 1.36H229.245C231.245 1.36 232.665 1.62 233.505 2.13999C234.365 2.65999 234.915 3.6 235.155 4.96C235.415 6.3 235.545 8.53999 235.545 11.68C235.545 14.82 235.415 17.07 235.155 18.43C234.915 19.77 234.365 20.7 233.505 21.22C232.665 21.74 231.245 22 229.245 22H224.325V1.36ZM229.155 20.02C230.535 20.02 231.475 19.88 231.975 19.6C232.495 19.3 232.845 18.61 233.025 17.53C233.205 16.45 233.295 14.5 233.295 11.68C233.295 8.88 233.205 6.94 233.025 5.85999C232.845 4.75999 232.495 4.06999 231.975 3.78999C231.455 3.49 230.515 3.34 229.155 3.34H226.545V20.02H229.155ZM239.838 22V1.36H249.588V3.34H242.088V10.57H248.598V12.55H242.088V20.02H249.588V22H239.838ZM256.776 22L251.616 1.36H253.956L258.186 19.03H258.366L262.596 1.36H264.846L259.716 22H256.776ZM267.873 22V1.36H277.623V3.34H270.123V10.57H276.633V12.55H270.123V20.02H277.623V22H267.873ZM281.452 22V1.36H283.702V19.96H290.362V22H281.452ZM299.089 22.24C297.129 22.24 295.729 21.97 294.889 21.43C294.049 20.89 293.509 19.94 293.269 18.58C293.029 17.2 292.909 14.9 292.909 11.68C292.909 8.46 293.029 6.17 293.269 4.81C293.509 3.43 294.049 2.47 294.889 1.93C295.729 1.39 297.129 1.12 299.089 1.12C301.049 1.12 302.449 1.39 303.289 1.93C304.129 2.47 304.669 3.43 304.909 4.81C305.149 6.17 305.269 8.46 305.269 11.68C305.269 14.9 305.149 17.2 304.909 18.58C304.669 19.94 304.129 20.89 303.289 21.43C302.449 21.97 301.049 22.24 299.089 22.24ZM299.089 20.26C300.369 20.26 301.259 20.11 301.759 19.81C302.259 19.51 302.589 18.8 302.749 17.68C302.909 16.56 302.989 14.56 302.989 11.68C302.989 8.79999 302.909 6.8 302.749 5.68C302.589 4.56 302.259 3.85 301.759 3.55C301.259 3.24999 300.369 3.09999 299.089 3.09999C297.809 3.09999 296.919 3.24999 296.419 3.55C295.919 3.85 295.589 4.56 295.429 5.68C295.269 6.8 295.189 8.79999 295.189 11.68C295.189 14.56 295.269 16.56 295.429 17.68C295.589 18.8 295.919 19.51 296.419 19.81C296.919 20.11 297.809 20.26 299.089 20.26ZM309.546 1.36H315.666C317.066 1.36 318.116 1.64 318.816 2.2C319.516 2.74 319.966 3.46 320.166 4.36C320.386 5.24 320.496 6.4 320.496 7.84C320.496 9.24 320.386 10.39 320.166 11.29C319.966 12.17 319.516 12.89 318.816 13.45C318.116 14.01 317.066 14.29 315.666 14.29H311.796V22H309.546V1.36ZM315.066 12.34C316.026 12.34 316.726 12.18 317.166 11.86C317.626 11.54 317.916 11.08 318.036 10.48C318.176 9.86 318.246 8.98 318.246 7.84C318.246 6.68 318.176 5.8 318.036 5.2C317.916 4.58 317.636 4.12 317.196 3.82C316.756 3.5 316.056 3.34 315.096 3.34H311.796V12.34H315.066ZM324.092 22V1.36H333.842V3.34H326.342V10.57H332.852V12.55H326.342V20.02H333.842V22H324.092ZM346.79 22L344.21 13.69H339.92V22H337.67V1.36H343.97C345.39 1.36 346.45 1.62 347.15 2.13999C347.85 2.65999 348.3 3.35 348.5 4.20999C348.72 5.07 348.83 6.18 348.83 7.54C348.83 9.04 348.67 10.28 348.35 11.26C348.05 12.22 347.39 12.9 346.37 13.3L349.16 22H346.79ZM343.4 11.74C344.34 11.74 345.04 11.59 345.5 11.29C345.96 10.99 346.25 10.56 346.37 10C346.51 9.42 346.58 8.6 346.58 7.54C346.58 6.46 346.51 5.64 346.37 5.08C346.25 4.52 345.97 4.09 345.53 3.78999C345.09 3.49 344.39 3.34 343.43 3.34H339.92V11.74H343.4Z"
          stroke="white"
        />
      </svg>