        <svg
          class="svg-surname"
          width="337"
          height="93"
          viewBox="0 0 337 93"
          fill="none"
          xmlns="http://www.w3.org/2000/svg"
        >
          <path
            d="M1 21.6H23.5C28.9667 21.6 33 23.0333 35.6 25.9C38.2667 28.7667 39.6 33.1 39.6 38.9C39.6 43.7 38.8333 47.4 37.3 50C35.7667 52.6 33.3667 54.3 30.1 55.1V55.5C33.7667 56.3667 36.3667 58.1 37.9 60.7C39.4333 63.2333 40.2 67.0333 40.2 72.1C40.2 78.0333 38.9333 82.5667 36.4 85.7C33.8667 88.8333 29.5333 90.4 23.4 90.4H1V21.6ZM20.4 50.4C23.2667 50.4 25.2667 49.7667 26.4 48.5C27.5333 47.1667 28.1 44.7333 28.1 41.2C28.1 38.6 27.9 36.6667 27.5 35.4C27.1 34.0667 26.3667 33.1667 25.3 32.7C24.2333 32.1667 22.6 31.9 20.4 31.9H12.4V50.4H20.4ZM20.8 80.2C23 80.2 24.6333 79.9333 25.7 79.4C26.8333 78.8667 27.6 77.9333 28 76.6C28.4 75.2667 28.6 73.2667 28.6 70.6C28.6 67.9333 28.3667 65.9 27.9 64.5C27.4333 63.1 26.6667 62.1333 25.6 61.6C24.5333 61.0667 22.9333 60.8 20.8 60.8H12.4V80.2H20.8ZM80.4281 90.4L73.0281 65.3H63.2281V90.4H51.8281V21.6H74.0281C78.8281 21.6 82.4281 22.4333 84.8281 24.1C87.2948 25.7667 88.9281 28.1333 89.7281 31.2C90.5948 34.2667 91.0281 38.3333 91.0281 43.4C91.0281 48.3333 90.5281 52.4333 89.5281 55.7C88.5948 58.9667 86.6615 61.3667 83.7281 62.9L92.4281 90.4H80.4281ZM71.3281 55C73.8615 55 75.6948 54.7 76.8281 54.1C77.9615 53.4333 78.6948 52.3333 79.0281 50.8C79.4281 49.2 79.6281 46.7333 79.6281 43.4C79.6281 40.0667 79.4281 37.6333 79.0281 36.1C78.6948 34.5667 77.9615 33.5 76.8281 32.9C75.6948 32.2333 73.8615 31.9 71.3281 31.9H63.2281V55H71.3281ZM99.9516 90.4V80.7L123.952 31.9H100.752V21.6H136.952V31.3L112.852 80.2H137.152V90.4H99.9516ZM167.516 91.2C160.782 91.2 155.982 90.2333 153.116 88.3C150.249 86.3 148.449 83.0667 147.716 78.6C146.982 74.0667 146.616 66.5333 146.616 56C146.616 45.4667 146.982 37.9667 147.716 33.5C148.449 28.9667 150.249 25.7333 153.116 23.8C155.982 21.8 160.782 20.8 167.516 20.8C174.249 20.8 179.049 21.8 181.916 23.8C184.782 25.7333 186.582 28.9667 187.316 33.5C188.116 38.0333 188.516 45.5333 188.516 56C188.516 66.4667 188.116 73.9667 187.316 78.5C186.582 83.0333 184.782 86.3 181.916 88.3C179.049 90.2333 174.249 91.2 167.516 91.2ZM167.516 80.9C170.782 80.9 173.016 80.5 174.216 79.7C175.416 78.8333 176.182 76.8333 176.516 73.7C176.916 70.5 177.116 64.6 177.116 56C177.116 47.4 176.916 41.5333 176.516 38.4C176.182 35.2 175.416 33.2 174.216 32.4C173.016 31.5333 170.782 31.1 167.516 31.1C164.249 31.1 162.016 31.5333 160.816 32.4C159.682 33.2 158.916 35.1667 158.516 38.3C158.182 41.4333 158.016 47.3333 158.016 56C158.016 64.6667 158.182 70.5667 158.516 73.7C158.916 76.8333 159.682 78.8333 160.816 79.7C162.016 80.5 164.249 80.9 167.516 80.9ZM162.316 15.4V14.9L167.616 1H178.616V1.5L170.916 15.4H162.316ZM197.995 90.4V80.7L221.995 31.9H198.795V21.6H234.995V31.3L210.895 80.2H235.195V90.4H197.995ZM275.159 90.4L262.759 60.7H257.459V90.4H246.059V21.6H257.459V50.4H262.759L275.559 21.6H287.259L272.159 54.5L287.559 90.4H275.159ZM314.238 91.2C307.505 91.2 302.705 90.2333 299.838 88.3C296.972 86.3 295.172 83.0667 294.438 78.6C293.705 74.0667 293.338 66.5333 293.338 56C293.338 45.4667 293.705 37.9667 294.438 33.5C295.172 28.9667 296.972 25.7333 299.838 23.8C302.705 21.8 307.505 20.8 314.238 20.8C320.972 20.8 325.772 21.8 328.638 23.8C331.505 25.7333 333.305 28.9667 334.038 33.5C334.838 38.0333 335.238 45.5333 335.238 56C335.238 66.4667 334.838 73.9667 334.038 78.5C333.305 83.0333 331.505 86.3 328.638 88.3C325.772 90.2333 320.972 91.2 314.238 91.2ZM314.238 80.9C317.505 80.9 319.738 80.5 320.938 79.7C322.138 78.8333 322.905 76.8333 323.238 73.7C323.638 70.5 323.838 64.6 323.838 56C323.838 47.4 323.638 41.5333 323.238 38.4C322.905 35.2 322.138 33.2 320.938 32.4C319.738 31.5333 317.505 31.1 314.238 31.1C310.972 31.1 308.738 31.5333 307.538 32.4C306.405 33.2 305.638 35.1667 305.238 38.3C304.905 41.4333 304.738 47.3333 304.738 56C304.738 64.6667 304.905 70.5667 305.238 73.7C305.638 76.8333 306.405 78.8333 307.538 79.7C308.738 80.5 310.972 80.9 314.238 80.9Z"
            stroke="white"
            stroke-width="2"
          />
        </svg>